<svg height="512pt" viewBox="0 0 512 512" width="512pt" xmlns="http://www.w3.org/2000/svg"><path d="m76 421c-24.8125 0-46-20.1875-46-45v-15h30v15c0 8.277344 7.722656 15 16 15s15-6.722656 15-15v-150c0-41.351562 33.648438-75 75-75h60v30h-60c-24.8125 0-45 20.1875-45 45v150c0 24.8125-20.1875 45-45 45zm0 0" fill="#7fe881"/><path d="m106 211h-30c-41.351562 0-76 33.648438-76 75v15h45c24.621094 0 47.316406-12.085938 61-30.464844zm0 0" fill="#7fe881"/><path d="m136 271h-30v59.535156c13.683594 18.378906 35.378906 30.464844 60 30.464844h45v-15c0-41.351562-33.648438-75-75-75zm0 0" fill="#7fe881"/><g fill="#5bc980"><path d="m436 512c-24.8125 0-45-20.1875-45-45v-241c0-24.8125-20.1875-45-45-45h-30v-30h30c41.351562 0 75 33.648438 75 75v241c0 8.277344 6.722656 15 15 15s15-6.722656 15-15v-15h30v15c0 24.8125-20.1875 45-45 45zm0 0"/><path d="m406 271h-30c-41.351562 0-75 33.648438-75 75v15h45c24.621094 0 46.316406-12.085938 60-30.464844zm0 0"/><path d="m406 391h-30c-41.351562 0-75 34.648438-75 76v15h45c24.621094 0 46.316406-12.085938 60-30.464844zm0 0"/><path d="m436 211h-30v59.535156c13.683594 18.378906 35.378906 30.464844 60 30.464844h46v-15c0-41.351562-34.648438-75-76-75zm0 0"/><path d="m436 331h-30v59.535156c13.683594 18.378906 35.378906 30.464844 60 30.464844h46v-15c0-41.351562-34.648438-75-76-75zm0 0"/><path d="m361 30v46c0 12-2.101562 23.699219-6 35.097656l-84 54.902344h-30l-90-90v-76h15c38.402344 0 71.699219 21.699219 90 52 3.601562 5.699219 6.300781 11.398438 8.699219 17.699219 19.199219-23.699219 48.601562-39.699219 81.300781-39.699219zm0 0"/></g><path d="m361 30v46c0 12-2.101562 23.699219-6 35.097656l-84 54.902344h-15v-114c3.601562 5.699219 6.300781 11.398438 8.699219 17.699219 19.199219-23.699219 48.601562-39.699219 81.300781-39.699219zm0 0" fill="#00ab5e"/><path d="m391 91v15c0 41.398438-33.601562 75-75 75h-90c-57.898438 0-105-47.101562-105-105v-15h45c40.5 0 72.597656 23.398438 90 57 13.800781-16.5 36.898438-27 60-27zm0 0" fill="#7fe881"/><path d="m391 91v15c0 41.398438-33.601562 75-75 75h-60v-63c13.800781-16.5 36.898438-27 60-27zm0 0" fill="#5bc980"/><path d="m301 256v30c0 24.898438-20.097656 45-45 45s-45-20.101562-45-45v-30zm0 0" fill="#714c2f"/><path d="m301 256v30c0 24.898438-20.097656 45-45 45v-75zm0 0" fill="#523522"/><path d="m361 151-30 120h-150l-30-120zm0 0" fill="#895d3c"/><path d="m361 151-30 120h-75v-120zm0 0" fill="#714c2f"/></svg>